Coordinates
version=1
nRows=13
nColumns=63
inDegrees=yes

Units are S.I. units (second, meters, Newtons, ...)
If the header above contains a line with 'inDegrees', this indicates whether rotational values are in degrees (yes) or radians (no).

endheader
time	pelvis_tilt	pelvis_list	pelvis_rotation	pelvis_tx	pelvis_ty	pelvis_tz	hip_flexion_r	hip_adduction_r	hip_rotation_r	knee_angle_r	knee_angle_r_beta	ankle_angle_r	subtalar_angle_r	mtp_angle_r	hip_flexion_l	hip_adduction_l	hip_rotation_l	knee_angle_l	knee_angle_l_beta	ankle_angle_l	subtalar_angle_l	mtp_angle_l	L5_S1_Flex_Ext	L5_S1_Lat_Bending	L5_S1_axial_rotation	L4_L5_Flex_Ext	L4_L5_Lat_Bending	L4_L5_axial_rotation	L3_L4_Flex_Ext	L3_L4_Lat_Bending	L3_L4_axial_rotation	L2_L3_Flex_Ext	L2_L3_Lat_Bending	L2_L3_axial_rotation	L1_L2_Flex_Ext	L1_L2_Lat_Bending	L1_L2_axial_rotation	L1_T12_Flex_Ext	L1_T12_Lat_Bending	L1_T12_axial_rotation	Abs_r3	Abs_r2	Abs_r1	Abs_t1	Abs_t2	neck_flexion	neck_bending	neck_rotation	arm_flex_r	arm_add_r	arm_rot_r	elbow_flex_r	pro_sup_r	wrist_flex_r	wrist_dev_r	arm_flex_l	arm_add_l	arm_rot_l	elbow_flex_l	pro_sup_l	wrist_flex_l	wrist_dev_l
3.380000	5.303957	-4.972588	89.771345	0.479700	0.649277	0.653824	-1.155421	2.165428	10.202414	1.667522	0.029104	20.039789	-5.574421	0.000000	1.502625	-3.129816	-11.009780	8.536067	0.148982	25.200732	7.736391	0.000000	0.067455	-0.139539	3.896953	0.125271	-0.185587	4.140512	0.110822	-0.339275	4.140512	0.077094	-0.339275	3.409834	0.062639	-0.284548	3.166274	0.038544	-0.216146	2.922715	0.481825	-1.578493	21.673683	0.000000	0.000000	24.199938	-2.495511	-6.078865	-16.316824	-16.924010	-434.158668	119.957635	53.101417	2.730610	20.091993	-26.231973	-41.510770	-65.024181	46.074443	42.087879	-2.161254	-4.007028
3.400000	5.489839	-4.927032	89.696981	0.479804	0.648611	0.653663	-1.309421	2.381959	11.194827	1.427470	0.024914	20.075708	-6.653352	0.000000	1.380044	-3.314778	-11.138546	8.391290	0.146456	25.543348	7.937184	0.000000	0.045824	-0.098729	3.842430	0.085100	-0.131309	4.082582	0.075285	-0.240049	4.082582	0.052372	-0.240049	3.362126	0.042552	-0.201328	3.121974	0.026184	-0.152931	2.881823	0.327317	-1.116840	21.370443	0.000000	0.000000	24.109249	-3.083990	-6.579064	-17.800295	-14.557499	-435.468312	117.227680	51.203949	3.096303	21.247634	-26.163089	-39.498098	-66.976069	44.401317	50.512424	-4.321547	-4.853108
3.420000	5.644624	-4.874292	89.674055	0.479913	0.648036	0.653668	-1.462796	2.570487	12.016114	1.216927	0.021239	20.096757	-7.603628	0.000000	1.233275	-3.467038	-11.223328	8.158079	0.142385	25.834810	8.141961	0.000000	0.023207	-0.066042	3.746897	0.043098	-0.087835	3.981078	0.038127	-0.160573	3.981078	0.026524	-0.160573	3.278535	0.021550	-0.134672	3.044354	0.013261	-0.102298	2.810173	0.165768	-0.747075	20.839119	0.000000	0.000000	23.995939	-3.574391	-7.330855	-18.827218	-12.542301	-436.250318	114.103487	50.074564	3.230766	22.037264	-25.959857	-37.629213	-66.148165	42.260809	56.996216	-6.439929	-5.754950
3.440000	5.749098	-4.815923	89.685433	0.480097	0.647543	0.653816	-1.612523	2.714923	12.627935	1.045014	0.018239	20.109610	-8.384114	0.000000	1.063185	-3.569583	-11.276000	7.847553	0.136966	26.075245	8.354966	0.000000	0.000763	-0.045167	3.616079	0.001417	-0.060072	3.842084	0.001253	-0.109819	3.842084	0.000872	-0.109819	3.164070	0.000708	-0.092104	2.938065	0.000436	-0.069963	2.712060	0.005449	-0.510936	20.111549	0.000000	0.000000	23.870924	-3.940003	-8.322304	-19.496528	-10.948991	-436.594746	110.648853	49.633862	3.265843	22.483070	-25.581705	-35.966599	-62.707598	39.720995	61.666720	-8.386469	-6.542036
3.460000	5.792456	-4.753694	89.727209	0.480413	0.647092	0.654095	-1.756856	2.808164	13.014127	0.912108	0.015919	20.136669	-8.973663	0.000000	0.883215	-3.617595	-11.304967	7.493233	0.130782	26.281305	8.595320	0.000000	-0.020952	-0.037825	3.453337	-0.038909	-0.050307	3.669171	-0.034421	-0.091967	3.669171	-0.023946	-0.091967	3.021670	-0.019456	-0.077132	2.805837	-0.011972	-0.058591	2.590003	-0.149655	-0.427882	19.206427	0.000000	0.000000	23.756926	-4.183594	-9.491874	-19.876863	-9.828552	-436.469870	106.937921	49.878696	3.123078	22.615776	-25.010421	-34.579055	-56.574605	36.826094	64.279992	-9.994613	-7.114597
3.480000	5.770939	-4.680367	89.769120	0.480912	0.646656	0.654506	-1.896572	2.847458	13.153059	0.822252	0.014351	20.211762	-9.303139	0.000000	0.696625	-3.610339	-11.341379	7.131442	0.124467	26.474329	8.853397	0.000000	-0.042753	-0.043658	3.267485	-0.079396	-0.058065	3.471703	-0.070239	-0.106149	3.471703	-0.048862	-0.106149	2.859049	-0.039700	-0.089026	2.654831	-0.024429	-0.067626	2.450614	-0.305380	-0.493863	18.172770	0.000000	0.000000	23.656902	-4.301795	-10.735449	-19.938681	-9.204753	-435.875306	102.982759	50.836622	3.019343	22.580472	-24.206422	-33.541893	-48.367758	33.739052	65.008634	-11.186104	-7.502973
3.500000	5.688898	-4.604200	89.816882	0.481602	0.646198	0.655029	-2.022358	2.840214	13.095528	0.767780	0.013400	20.332931	-9.437229	0.000000	0.530230	-3.556333	-11.374606	6.803520	0.118744	26.663081	9.110767	0.000000	-0.063336	-0.061354	3.061655	-0.117622	-0.081600	3.253008	-0.104055	-0.149175	3.253008	-0.072387	-0.149175	2.678948	-0.058814	-0.125112	2.487595	-0.036190	-0.095037	2.296241	-0.452406	-0.694044	17.028007	0.000000	0.000000	23.570486	-4.246682	-11.919262	-19.690087	-9.114134	-434.676231	98.819501	52.341529	2.859757	22.361637	-23.043434	-32.865896	-37.915839	30.482871	63.566258	-11.769518	-7.810253
3.520000	5.560512	-4.514382	89.820751	0.482528	0.645731	0.655626	-2.140723	2.801129	12.889154	0.743820	0.012982	20.516963	-9.359495	0.000000	0.373361	-3.473235	-11.456700	6.532338	0.114011	26.849737	9.355572	0.000000	-0.084132	-0.087788	2.855406	-0.156241	-0.116758	3.033869	-0.138220	-0.213447	3.033869	-0.096154	-0.213447	2.498480	-0.078125	-0.179017	2.320017	-0.048073	-0.135983	2.141554	-0.600944	-0.993073	15.880911	0.000000	0.000000	23.467335	-4.082218	-13.069043	-19.158572	-9.500550	-432.956532	94.536483	54.319280	2.748920	22.146957	-21.366776	-32.548803	-25.640183	27.124944	59.969518	-11.645445	-8.170622
3.540000	5.383759	-4.419694	89.781074	0.483698	0.645237	0.656241	-2.248124	2.729788	12.596869	0.733712	0.012806	20.773059	-9.118475	0.000000	0.249691	-3.365257	-11.614901	6.355814	0.110930	27.035017	9.608791	0.000000	-0.103720	-0.122984	2.653979	-0.192619	-0.163569	2.819853	-0.170402	-0.299024	2.819853	-0.118542	-0.299024	2.322232	-0.096315	-0.250789	2.156358	-0.059266	-0.190502	1.990484	-0.740862	-1.391221	14.760637	0.000000	0.000000	23.322051	-3.739126	-14.144030	-18.345395	-10.269013	-430.677532	90.230635	56.778220	2.547172	22.063892	-19.124430	-32.566834	-12.466972	23.892991	54.624876	-10.904335	-8.644901
3.560000	5.173629	-4.322801	89.683862	0.485100	0.644698	0.656829	-2.345306	2.639858	12.388873	0.725976	0.012671	21.071340	-8.905648	0.000000	0.169171	-3.241797	-11.781063	6.295937	0.109885	27.210558	9.748874	0.000000	-0.122094	-0.163865	2.462419	-0.226741	-0.217941	2.616320	-0.200588	-0.398422	2.616320	-0.139541	-0.398422	2.154616	-0.113376	-0.334154	2.000715	-0.069765	-0.253827	1.846814	-0.872105	-1.853676	13.695234	0.000000	0.000000	23.105930	-3.242139	-15.128828	-17.201300	-11.319163	-427.762654	85.987008	60.152366	2.045346	22.166919	-16.326907	-32.739326	1.931237	20.781122	47.332580	-9.693416	-9.284344
3.580000	4.947679	-4.239042	89.519533	0.486725	0.644082	0.657335	-2.415672	2.545697	12.219090	0.722921	0.012617	21.443054	-8.617708	0.000000	0.149718	-3.123244	-11.980940	6.367649	0.111136	27.398276	9.783105	0.000000	-0.136832	-0.206707	2.282583	-0.254111	-0.274921	2.425245	-0.224801	-0.502589	2.425245	-0.156385	-0.502589	1.997260	-0.127062	-0.421518	1.854599	-0.078186	-0.320190	1.711937	-0.977377	-2.338316	12.695043	0.000000	0.000000	22.787123	-2.612256	-15.948086	-15.702445	-12.578072	-424.127302	81.824678	64.210052	1.302284	22.341192	-13.127569	-32.954155	17.279811	17.904466	38.483523	-8.325564	-10.172461
3.600000	4.697411	-4.162763	89.274266	0.488567	0.643405	0.657743	-2.468775	2.435325	12.221663	0.719716	0.012561	21.852737	-8.415708	0.000000	0.182885	-2.994114	-12.168577	6.571309	0.114691	27.596804	9.635361	0.000000	-0.149378	-0.250826	2.107643	-0.277410	-0.333598	2.239371	-0.245413	-0.609857	2.239371	-0.170724	-0.609857	1.844188	-0.138712	-0.511483	1.712460	-0.085355	-0.388529	1.580732	-1.066992	-2.837389	11.722080	0.000000	0.000000	22.335357	-1.895797	-16.548340	-13.784781	-13.963745	-419.689872	77.775999	68.718392	0.338915	22.403391	-9.628036	-33.018773	33.146774	15.285271	29.750664	-7.247154	-11.140559
3.620000	4.444410	-4.099014	88.944566	0.490614	0.642676	0.657993	-2.504847	2.327360	12.349569	0.720058	0.012567	22.299544	-8.227834	0.000000	0.260320	-2.885938	-12.447431	6.898506	0.120402	27.840096	9.452873	0.000000	-0.157364	-0.291929	1.936720	-0.292240	-0.388265	2.057765	-0.258533	-0.709796	2.057765	-0.179851	-0.709796	1.694630	-0.146128	-0.595301	1.573585	-0.089918	-0.452198	1.452540	-1.124032	-3.302358	10.771456	0.000000	0.000000	21.733578	-1.153409	-16.839356	-11.518071	-15.384796	-414.544893	73.877407	73.055845	-0.592488	22.222675	-5.996539	-32.872513	48.707865	13.061294	22.065510	-6.729012	-11.992824
